<mxfile host="Electron" modified="2023-09-21T08:43:03.493Z" agent="Mozilla/5.0 (Macintosh; Intel Mac OS X 10_15_7) AppleWebKit/537.36 (KHTML, like Gecko) draw.io/21.7.5 Chrome/114.0.5735.289 Electron/25.8.1 Safari/537.36" etag="1QsaydgLPqhev23QkwjG" version="21.7.5" type="device">
  <diagram id="qy2qSbY3riS61LTxJreO" name="Page-1">
    <mxGraphModel dx="1781" dy="727" grid="1" gridSize="10" guides="1" tooltips="1" connect="1" arrows="1" fold="1" page="1" pageScale="1" pageWidth="827" pageHeight="1169" math="0" shadow="0">
      <root>
        <mxCell id="0" />
        <mxCell id="1" parent="0" />
        <mxCell id="BBem6FU7VksnU7Hk0lwj-15" value="Logging and Monitoring" style="fillColor=none;strokeColor=#DD3522;verticalAlign=top;fontStyle=0;fontColor=#DD3522;container=0;" vertex="1" parent="1">
          <mxGeometry y="790" width="830" height="117" as="geometry" />
        </mxCell>
        <mxCell id="avdNNv7QA7Cx9In89-n9-3" value="Availability Zone" style="fillColor=none;strokeColor=#147EBA;dashed=1;verticalAlign=top;fontStyle=0;fontColor=#147EBA;container=0;" parent="1" vertex="1">
          <mxGeometry x="-10" y="600" width="363" height="180" as="geometry" />
        </mxCell>
        <mxCell id="nrgCyI4Qcjg0DDZfqGtk-5" value="Public subnet" style="points=[[0,0],[0.25,0],[0.5,0],[0.75,0],[1,0],[1,0.25],[1,0.5],[1,0.75],[1,1],[0.75,1],[0.5,1],[0.25,1],[0,1],[0,0.75],[0,0.5],[0,0.25]];outlineConnect=0;gradientColor=none;html=1;whiteSpace=wrap;fontSize=12;fontStyle=0;container=0;pointerEvents=0;collapsible=0;recursiveResize=0;shape=mxgraph.aws4.group;grIcon=mxgraph.aws4.group_security_group;grStroke=0;strokeColor=#147EBA;fillColor=#E6F2F8;verticalAlign=top;align=left;spacingLeft=30;fontColor=#147EBA;dashed=0;" parent="1" vertex="1">
          <mxGeometry x="260" y="448" width="334" height="140" as="geometry" />
        </mxCell>
        <mxCell id="avdNNv7QA7Cx9In89-n9-5" value="VPC" style="points=[[0,0],[0.25,0],[0.5,0],[0.75,0],[1,0],[1,0.25],[1,0.5],[1,0.75],[1,1],[0.75,1],[0.5,1],[0.25,1],[0,1],[0,0.75],[0,0.5],[0,0.25]];outlineConnect=0;gradientColor=none;html=1;whiteSpace=wrap;fontSize=12;fontStyle=0;container=0;pointerEvents=0;collapsible=0;recursiveResize=0;shape=mxgraph.aws4.group;grIcon=mxgraph.aws4.group_vpc;strokeColor=#248814;fillColor=none;verticalAlign=top;align=left;spacingLeft=30;fontColor=#AAB7B8;dashed=0;" parent="1" vertex="1">
          <mxGeometry x="-20" y="390" width="870" height="530" as="geometry" />
        </mxCell>
        <mxCell id="avdNNv7QA7Cx9In89-n9-6" value="AWS Cloud" style="points=[[0,0],[0.25,0],[0.5,0],[0.75,0],[1,0],[1,0.25],[1,0.5],[1,0.75],[1,1],[0.75,1],[0.5,1],[0.25,1],[0,1],[0,0.75],[0,0.5],[0,0.25]];outlineConnect=0;gradientColor=none;html=1;whiteSpace=wrap;fontSize=12;fontStyle=0;container=0;pointerEvents=0;collapsible=0;recursiveResize=0;shape=mxgraph.aws4.group;grIcon=mxgraph.aws4.group_aws_cloud;strokeColor=#232F3E;fillColor=none;verticalAlign=top;align=left;spacingLeft=30;fontColor=#232F3E;dashed=0;" parent="1" vertex="1">
          <mxGeometry x="-40" y="320" width="910" height="620" as="geometry" />
        </mxCell>
        <mxCell id="avdNNv7QA7Cx9In89-n9-7" value="Region" style="points=[[0,0],[0.25,0],[0.5,0],[0.75,0],[1,0],[1,0.25],[1,0.5],[1,0.75],[1,1],[0.75,1],[0.5,1],[0.25,1],[0,1],[0,0.75],[0,0.5],[0,0.25]];outlineConnect=0;gradientColor=none;html=1;whiteSpace=wrap;fontSize=12;fontStyle=0;container=0;pointerEvents=0;collapsible=0;recursiveResize=0;shape=mxgraph.aws4.group;grIcon=mxgraph.aws4.group_region;strokeColor=#147EBA;fillColor=none;verticalAlign=top;align=left;spacingLeft=30;fontColor=#147EBA;dashed=1;" parent="1" vertex="1">
          <mxGeometry x="-30" y="350" width="890" height="580" as="geometry" />
        </mxCell>
        <mxCell id="avdNNv7QA7Cx9In89-n9-24" value="Security group" style="fillColor=none;strokeColor=#DD3522;verticalAlign=top;fontStyle=0;fontColor=#DD3522;container=0;" parent="1" vertex="1">
          <mxGeometry x="100" y="656" width="640" height="109" as="geometry" />
        </mxCell>
        <mxCell id="avdNNv7QA7Cx9In89-n9-16" value="Availability Zone" style="fillColor=none;strokeColor=#147EBA;dashed=1;verticalAlign=top;fontStyle=0;fontColor=#147EBA;container=0;" parent="1" vertex="1">
          <mxGeometry x="479" y="600" width="363" height="180" as="geometry" />
        </mxCell>
        <mxCell id="avdNNv7QA7Cx9In89-n9-13" value="Private subnet" style="points=[[0,0],[0.25,0],[0.5,0],[0.75,0],[1,0],[1,0.25],[1,0.5],[1,0.75],[1,1],[0.75,1],[0.5,1],[0.25,1],[0,1],[0,0.75],[0,0.5],[0,0.25]];outlineConnect=0;gradientColor=none;html=1;whiteSpace=wrap;fontSize=12;fontStyle=0;container=0;pointerEvents=0;collapsible=0;recursiveResize=0;shape=mxgraph.aws4.group;grIcon=mxgraph.aws4.group_security_group;grStroke=0;strokeColor=#147EBA;fillColor=#E6F2F8;verticalAlign=top;align=left;spacingLeft=30;fontColor=#147EBA;dashed=0;" parent="1" vertex="1">
          <mxGeometry x="1.5" y="630" width="340" height="140" as="geometry" />
        </mxCell>
        <mxCell id="avdNNv7QA7Cx9In89-n9-18" value="Private subnet" style="points=[[0,0],[0.25,0],[0.5,0],[0.75,0],[1,0],[1,0.25],[1,0.5],[1,0.75],[1,1],[0.75,1],[0.5,1],[0.25,1],[0,1],[0,0.75],[0,0.5],[0,0.25]];outlineConnect=0;gradientColor=none;html=1;whiteSpace=wrap;fontSize=12;fontStyle=0;container=0;pointerEvents=0;collapsible=0;recursiveResize=0;shape=mxgraph.aws4.group;grIcon=mxgraph.aws4.group_security_group;grStroke=0;strokeColor=#147EBA;fillColor=#E6F2F8;verticalAlign=top;align=left;spacingLeft=30;fontColor=#147EBA;dashed=0;" parent="1" vertex="1">
          <mxGeometry x="490.5" y="630" width="340" height="138" as="geometry" />
        </mxCell>
        <mxCell id="avdNNv7QA7Cx9In89-n9-21" value="EKS Cluster" style="points=[[0,0],[0.25,0],[0.5,0],[0.75,0],[1,0],[1,0.25],[1,0.5],[1,0.75],[1,1],[0.75,1],[0.5,1],[0.25,1],[0,1],[0,0.75],[0,0.5],[0,0.25]];outlineConnect=0;gradientColor=none;html=1;whiteSpace=wrap;fontSize=12;fontStyle=0;container=0;pointerEvents=0;collapsible=0;recursiveResize=0;shape=mxgraph.aws4.groupCenter;grIcon=mxgraph.aws4.group_auto_scaling_group;grStroke=1;strokeColor=#D86613;fillColor=none;verticalAlign=top;align=center;fontColor=#D86613;dashed=1;spacingTop=25;" parent="1" vertex="1">
          <mxGeometry x="110" y="681" width="620" height="72" as="geometry" />
        </mxCell>
        <mxCell id="avdNNv7QA7Cx9In89-n9-26" value="" style="sketch=0;points=[[0,0,0],[0.25,0,0],[0.5,0,0],[0.75,0,0],[1,0,0],[0,1,0],[0.25,1,0],[0.5,1,0],[0.75,1,0],[1,1,0],[0,0.25,0],[0,0.5,0],[0,0.75,0],[1,0.25,0],[1,0.5,0],[1,0.75,0]];outlineConnect=0;fontColor=#232F3E;gradientColor=#F78E04;gradientDirection=north;fillColor=#D05C17;strokeColor=#ffffff;dashed=0;verticalLabelPosition=bottom;verticalAlign=top;align=center;html=1;fontSize=12;fontStyle=0;aspect=fixed;shape=mxgraph.aws4.resourceIcon;resIcon=mxgraph.aws4.ec2;container=0;" parent="1" vertex="1">
          <mxGeometry x="146" y="686.63" width="60.75" height="60.75" as="geometry" />
        </mxCell>
        <mxCell id="avdNNv7QA7Cx9In89-n9-34" value="" style="sketch=0;points=[[0,0,0],[0.25,0,0],[0.5,0,0],[0.75,0,0],[1,0,0],[0,1,0],[0.25,1,0],[0.5,1,0],[0.75,1,0],[1,1,0],[0,0.25,0],[0,0.5,0],[0,0.75,0],[1,0.25,0],[1,0.5,0],[1,0.75,0]];outlineConnect=0;fontColor=#232F3E;gradientColor=#F78E04;gradientDirection=north;fillColor=#D05C17;strokeColor=#ffffff;dashed=0;verticalLabelPosition=bottom;verticalAlign=top;align=center;html=1;fontSize=12;fontStyle=0;aspect=fixed;shape=mxgraph.aws4.resourceIcon;resIcon=mxgraph.aws4.ec2;container=0;" parent="1" vertex="1">
          <mxGeometry x="640" y="686.62" width="60.75" height="60.75" as="geometry" />
        </mxCell>
        <mxCell id="avdNNv7QA7Cx9In89-n9-43" value="" style="sketch=0;outlineConnect=0;fontColor=#232F3E;gradientColor=none;fillColor=#4D27AA;strokeColor=none;dashed=0;verticalLabelPosition=bottom;verticalAlign=top;align=center;html=1;fontSize=12;fontStyle=0;aspect=fixed;pointerEvents=1;shape=mxgraph.aws4.nat_gateway;container=0;" parent="1" vertex="1">
          <mxGeometry x="12" y="688" width="58" height="58" as="geometry" />
        </mxCell>
        <mxCell id="avdNNv7QA7Cx9In89-n9-64" style="edgeStyle=orthogonalEdgeStyle;rounded=0;orthogonalLoop=1;jettySize=auto;html=1;entryX=0.5;entryY=0;entryDx=0;entryDy=0;" parent="1" source="avdNNv7QA7Cx9In89-n9-50" target="avdNNv7QA7Cx9In89-n9-56" edge="1">
          <mxGeometry relative="1" as="geometry" />
        </mxCell>
        <mxCell id="avdNNv7QA7Cx9In89-n9-50" value="" style="outlineConnect=0;dashed=0;verticalLabelPosition=bottom;verticalAlign=top;align=center;html=1;shape=mxgraph.aws3.internet_gateway;fillColor=#F58536;gradientColor=none;container=0;" parent="1" vertex="1">
          <mxGeometry x="395" y="358" width="69" height="72" as="geometry" />
        </mxCell>
        <mxCell id="avdNNv7QA7Cx9In89-n9-54" value="Node Group" style="text;html=1;strokeColor=none;fillColor=none;align=center;verticalAlign=middle;whiteSpace=wrap;rounded=0;container=0;" parent="1" vertex="1">
          <mxGeometry x="550" y="725" width="102" height="30" as="geometry" />
        </mxCell>
        <mxCell id="avdNNv7QA7Cx9In89-n9-56" value="Security group" style="fillColor=none;strokeColor=#DD3522;verticalAlign=top;fontStyle=0;fontColor=#DD3522;container=0;" parent="1" vertex="1">
          <mxGeometry x="376" y="450" width="106" height="140" as="geometry" />
        </mxCell>
        <mxCell id="avdNNv7QA7Cx9In89-n9-31" value="" style="sketch=0;outlineConnect=0;fontColor=#232F3E;gradientColor=none;fillColor=#4D27AA;strokeColor=none;dashed=0;verticalLabelPosition=bottom;verticalAlign=top;align=center;html=1;fontSize=12;fontStyle=0;aspect=fixed;pointerEvents=1;shape=mxgraph.aws4.application_load_balancer;container=0;" parent="1" vertex="1">
          <mxGeometry x="390" y="479.25" width="69.5" height="69.5" as="geometry" />
        </mxCell>
        <mxCell id="avdNNv7QA7Cx9In89-n9-74" style="edgeStyle=orthogonalEdgeStyle;rounded=0;orthogonalLoop=1;jettySize=auto;html=1;entryX=0;entryY=0.5;entryDx=0;entryDy=0;entryPerimeter=0;" parent="1" source="avdNNv7QA7Cx9In89-n9-55" target="avdNNv7QA7Cx9In89-n9-34" edge="1">
          <mxGeometry relative="1" as="geometry">
            <Array as="points">
              <mxPoint x="431" y="650" />
              <mxPoint x="565" y="650" />
              <mxPoint x="565" y="717" />
            </Array>
          </mxGeometry>
        </mxCell>
        <mxCell id="avdNNv7QA7Cx9In89-n9-75" style="edgeStyle=orthogonalEdgeStyle;rounded=0;orthogonalLoop=1;jettySize=auto;html=1;exitX=0.5;exitY=1;exitDx=0;exitDy=0;entryX=1;entryY=0.5;entryDx=0;entryDy=0;entryPerimeter=0;" parent="1" source="avdNNv7QA7Cx9In89-n9-55" target="avdNNv7QA7Cx9In89-n9-26" edge="1">
          <mxGeometry relative="1" as="geometry">
            <Array as="points">
              <mxPoint x="431" y="650" />
              <mxPoint x="260" y="650" />
              <mxPoint x="260" y="717" />
            </Array>
          </mxGeometry>
        </mxCell>
        <mxCell id="avdNNv7QA7Cx9In89-n9-55" value="Application Load Balancer" style="text;html=1;strokeColor=none;fillColor=none;align=center;verticalAlign=middle;whiteSpace=wrap;rounded=0;container=0;" parent="1" vertex="1">
          <mxGeometry x="370.5" y="555" width="120" height="30" as="geometry" />
        </mxCell>
        <mxCell id="nrgCyI4Qcjg0DDZfqGtk-13" value="Node Group" style="text;html=1;strokeColor=none;fillColor=none;align=center;verticalAlign=middle;whiteSpace=wrap;rounded=0;container=0;" parent="1" vertex="1">
          <mxGeometry x="194.75" y="726.49" width="105.25" height="30" as="geometry" />
        </mxCell>
        <mxCell id="avdNNv7QA7Cx9In89-n9-44" value="" style="sketch=0;outlineConnect=0;fontColor=#232F3E;gradientColor=none;fillColor=#4D27AA;strokeColor=none;dashed=0;verticalLabelPosition=bottom;verticalAlign=top;align=center;html=1;fontSize=12;fontStyle=0;aspect=fixed;pointerEvents=1;shape=mxgraph.aws4.nat_gateway;container=0;" parent="1" vertex="1">
          <mxGeometry x="762" y="688.01" width="58" height="58" as="geometry" />
        </mxCell>
        <mxCell id="BBem6FU7VksnU7Hk0lwj-3" value="" style="outlineConnect=0;dashed=0;verticalLabelPosition=bottom;verticalAlign=top;align=center;html=1;shape=mxgraph.aws3.ecr_registry;fillColor=#F58534;gradientColor=none;" vertex="1" parent="1">
          <mxGeometry x="743.19" y="440" width="57" height="60" as="geometry" />
        </mxCell>
        <mxCell id="BBem6FU7VksnU7Hk0lwj-4" value="" style="sketch=0;points=[[0,0,0],[0.25,0,0],[0.5,0,0],[0.75,0,0],[1,0,0],[0,1,0],[0.25,1,0],[0.5,1,0],[0.75,1,0],[1,1,0],[0,0.25,0],[0,0.5,0],[0,0.75,0],[1,0.25,0],[1,0.5,0],[1,0.75,0]];outlineConnect=0;fontColor=#232F3E;fillColor=#ED7100;strokeColor=#ffffff;dashed=0;verticalLabelPosition=bottom;verticalAlign=top;align=center;html=1;fontSize=12;fontStyle=0;aspect=fixed;shape=mxgraph.aws4.resourceIcon;resIcon=mxgraph.aws4.eks_cloud;" vertex="1" parent="1">
          <mxGeometry x="401" y="682" width="31" height="31" as="geometry" />
        </mxCell>
        <mxCell id="BBem6FU7VksnU7Hk0lwj-7" value="" style="outlineConnect=0;dashed=0;verticalLabelPosition=bottom;verticalAlign=top;align=center;html=1;shape=mxgraph.aws3.cloudwatch;fillColor=#759C3E;gradientColor=none;" vertex="1" parent="1">
          <mxGeometry x="374.8199999999999" y="815" width="72.5" height="73" as="geometry" />
        </mxCell>
        <mxCell id="BBem6FU7VksnU7Hk0lwj-8" value="Cloud Watch" style="text;html=1;strokeColor=none;fillColor=none;align=center;verticalAlign=middle;whiteSpace=wrap;rounded=0;" vertex="1" parent="1">
          <mxGeometry x="368.82" y="881.5" width="83.37" height="30" as="geometry" />
        </mxCell>
        <mxCell id="BBem6FU7VksnU7Hk0lwj-11" value="" style="shape=image;aspect=fixed;image=data:image/svg+xml,PD94bWwgdmVyc2lvbj0iMS4wIiBlbmNvZGluZz0idXRmLTgiPz4NCjwhLS0gR2VuZXJhdG9yOiBBZG9iZSBJbGx1c3RyYXRvciAyMS4wLjAsIFNWRyBFeHBvcnQgUGx1Zy1JbiAuIFNWRyBWZXJzaW9uOiA2LjAwIEJ1aWxkIDApICAtLT4NCjxzdmcgdmVyc2lvbj0iMS4xIiBpZD0iTGF5ZXJfMSIgeG1sbnM9Imh0dHA6Ly93d3cudzMub3JnLzIwMDAvc3ZnIiB4bWxuczp4bGluaz0iaHR0cDovL3d3dy53My5vcmcvMTk5OS94bGluayIgeD0iMHB4IiB5PSIwcHgiDQoJIHZpZXdCb3g9IjAgMCAxNDIuNSAxNDUuNiIgc3R5bGU9ImVuYWJsZS1iYWNrZ3JvdW5kOm5ldyAwIDAgMTQyLjUgMTQ1LjY7IiB4bWw6c3BhY2U9InByZXNlcnZlIj4NCjxzdHlsZSB0eXBlPSJ0ZXh0L2NzcyI+DQoJLnN0MHtmaWxsOiM1NjU2NTY7fQ0KCS5zdDF7ZmlsbDp1cmwoI1NWR0lEXzFfKTt9DQo8L3N0eWxlPg0KPGc+DQoJPHBhdGggY2xhc3M9InN0MCIgZD0iTTI4LjcsMTMxLjVjLTAuMyw3LjktNi42LDE0LjEtMTQuNCwxNC4xQzYuMSwxNDUuNiwwLDEzOSwwLDEzMC45czYuNi0xNC43LDE0LjctMTQuN2MzLjYsMCw3LjIsMS42LDEwLjIsNC40DQoJCWwtMi4zLDIuOWMtMi4zLTItNS4xLTMuNC03LjktMy40Yy01LjksMC0xMC44LDQuOC0xMC44LDEwLjhjMCw2LjEsNC42LDEwLjgsMTAuNCwxMC44YzUuMiwwLDkuMy0zLjgsMTAuMi04LjhIMTIuNnYtMy41aDE2LjENCgkJVjEzMS41eiIvPg0KCTxwYXRoIGNsYXNzPSJzdDAiIGQ9Ik00Mi4zLDEyOS41aC0yLjJjLTIuNCwwLTQuNCwyLTQuNCw0LjR2MTEuNGgtMy45di0xOS42SDM1djEuNmMxLjEtMS4xLDIuNy0xLjYsNC42LTEuNmg0LjJMNDIuMywxMjkuNXoiLz4NCgk8cGF0aCBjbGFzcz0ic3QwIiBkPSJNNjMuNywxNDUuM2gtMy40di0yLjVjLTIuNiwyLjUtNi42LDMuNy0xMC43LDEuOWMtMy0xLjMtNS4zLTQuMS01LjktNy40Yy0xLjItNi4zLDMuNy0xMS45LDkuOS0xMS45DQoJCWMyLjYsMCw1LDEuMSw2LjcsMi44di0yLjVoMy40VjE0NS4zeiBNNTkuNywxMzdjMC45LTQtMi4xLTcuNi02LTcuNmMtMy40LDAtNi4xLDIuOC02LjEsNi4xYzAsMy44LDMuMyw2LjcsNy4yLDYuMQ0KCQlDNTcuMSwxNDEuMiw1OS4xLDEzOS4zLDU5LjcsMTM3eiIvPg0KCTxwYXRoIGNsYXNzPSJzdDAiIGQ9Ik03MS41LDEyNC43djEuMWg2LjJ2My40aC02LjJ2MTYuMWgtMy44di0yMC41YzAtNC4zLDMuMS02LjgsNy02LjhoNC43bC0xLjYsMy43aC0zLjENCgkJQzcyLjksMTIxLjYsNzEuNSwxMjMsNzEuNSwxMjQuN3oiLz4NCgk8cGF0aCBjbGFzcz0ic3QwIiBkPSJNOTguNSwxNDUuM2gtMy4zdi0yLjVjLTIuNiwyLjUtNi42LDMuNy0xMC43LDEuOWMtMy0xLjMtNS4zLTQuMS01LjktNy40Yy0xLjItNi4zLDMuNy0xMS45LDkuOS0xMS45DQoJCWMyLjYsMCw1LDEuMSw2LjcsMi44di0yLjVoMy40djE5LjZIOTguNXogTTk0LjUsMTM3YzAuOS00LTIuMS03LjYtNi03LjZjLTMuNCwwLTYuMSwyLjgtNi4xLDYuMWMwLDMuOCwzLjMsNi43LDcuMiw2LjENCgkJQzkyLDE0MS4yLDkzLjksMTM5LjMsOTQuNSwxMzd6Ii8+DQoJPHBhdGggY2xhc3M9InN0MCIgZD0iTTExOS40LDEzMy44djExLjVoLTMuOXYtMTEuNmMwLTIuNC0yLTQuNC00LjQtNC40Yy0yLjUsMC00LjQsMi00LjQsNC40djExLjZoLTMuOXYtMTkuNmgzLjJ2MS43DQoJCWMxLjQtMS4zLDMuMy0yLDUuMi0yQzExNS44LDEyNS41LDExOS40LDEyOS4yLDExOS40LDEzMy44eiIvPg0KCTxwYXRoIGNsYXNzPSJzdDAiIGQ9Ik0xNDIuNCwxNDUuM2gtMy4zdi0yLjVjLTIuNiwyLjUtNi42LDMuNy0xMC43LDEuOWMtMy0xLjMtNS4zLTQuMS01LjktNy40Yy0xLjItNi4zLDMuNy0xMS45LDkuOS0xMS45DQoJCWMyLjYsMCw1LDEuMSw2LjcsMi44di0yLjVoMy40djE5LjZIMTQyLjR6IE0xMzguNCwxMzdjMC45LTQtMi4xLTcuNi02LTcuNmMtMy40LDAtNi4xLDIuOC02LjEsNi4xYzAsMy44LDMuMyw2LjcsNy4yLDYuMQ0KCQlDMTM1LjksMTQxLjIsMTM3LjgsMTM5LjMsMTM4LjQsMTM3eiIvPg0KPC9nPg0KPGxpbmVhckdyYWRpZW50IGlkPSJTVkdJRF8xXyIgZ3JhZGllbnRVbml0cz0idXNlclNwYWNlT25Vc2UiIHgxPSI3MS4yNSIgeTE9IjEwLjQ4OTMiIHgyPSI3MS4yNSIgeTI9IjExMy4zNDE1IiBncmFkaWVudFRyYW5zZm9ybT0ibWF0cml4KDEgMCAwIC0xIDAgMTQ4LjYpIj4NCgk8c3RvcCAgb2Zmc2V0PSIwIiBzdHlsZT0ic3RvcC1jb2xvcjojRkNFRTFGIi8+DQoJPHN0b3AgIG9mZnNldD0iMSIgc3R5bGU9InN0b3AtY29sb3I6I0YxNUIyQSIvPg0KPC9saW5lYXJHcmFkaWVudD4NCjxwYXRoIGNsYXNzPSJzdDEiIGQ9Ik0xMjIuOSw0OS45Yy0wLjItMS45LTAuNS00LjEtMS4xLTYuNWMtMC42LTIuNC0xLjYtNS0yLjktNy44Yy0xLjQtMi43LTMuMS01LjYtNS40LTguMw0KCWMtMC45LTEuMS0xLjktMi4xLTIuOS0zLjJjMS42LTYuMy0xLjktMTEuOC0xLjktMTEuOGMtNi4xLTAuNC05LjksMS45LTExLjMsMi45Yy0wLjItMC4xLTAuNS0wLjItMC43LTAuM2MtMS0wLjQtMi4xLTAuOC0zLjItMS4yDQoJYy0xLjEtMC4zLTIuMi0wLjctMy4zLTAuOWMtMS4xLTAuMy0yLjMtMC41LTMuNS0wLjdjLTAuMiwwLTAuNC0wLjEtMC42LTAuMUM4My41LDMuNiw3NS45LDAsNzUuOSwwYy04LjcsNS42LTEwLjQsMTMuMS0xMC40LDEzLjENCglzMCwwLjItMC4xLDAuNGMtMC41LDAuMS0wLjksMC4zLTEuNCwwLjRjLTAuNiwwLjItMS4zLDAuNC0xLjksMC43Yy0wLjYsMC4zLTEuMywwLjUtMS45LDAuOGMtMS4zLDAuNi0yLjUsMS4yLTMuOCwxLjkNCgljLTEuMiwwLjctMi40LDEuNC0zLjUsMi4yYy0wLjItMC4xLTAuMy0wLjItMC4zLTAuMmMtMTEuNy00LjUtMjIuMSwwLjktMjIuMSwwLjljLTAuOSwxMi41LDQuNywyMC4zLDUuOCwyMS43DQoJYy0wLjMsMC44LTAuNSwxLjUtMC44LDIuM2MtMC45LDIuOC0xLjUsNS43LTEuOSw4LjdjLTAuMSwwLjQtMC4xLDAuOS0wLjIsMS4zYy0xMC44LDUuMy0xNCwxNi4zLTE0LDE2LjNjOSwxMC40LDE5LjYsMTEsMTkuNiwxMQ0KCWwwLDBjMS4zLDIuNCwyLjksNC43LDQuNiw2LjhjMC43LDAuOSwxLjUsMS43LDIuMywyLjZjLTMuMyw5LjQsMC41LDE3LjMsMC41LDE3LjNjMTAuMSwwLjQsMTYuNy00LjQsMTguMS01LjVjMSwwLjMsMiwwLjYsMywwLjkNCgljMy4xLDAuOCw2LjMsMS4zLDkuNCwxLjRjMC44LDAsMS42LDAsMi40LDBoMC40SDgwaDAuNUg4MWwwLDBjNC43LDYuOCwxMy4xLDcuNywxMy4xLDcuN2M1LjktNi4zLDYuMy0xMi40LDYuMy0xMy44bDAsMA0KCWMwLDAsMCwwLDAtMC4xczAtMC4yLDAtMC4ybDAsMGMwLTAuMSwwLTAuMiwwLTAuM2MxLjItMC45LDIuNC0xLjgsMy42LTIuOGMyLjQtMi4xLDQuNC00LjYsNi4yLTcuMmMwLjItMC4yLDAuMy0wLjUsMC41LTAuNw0KCWM2LjcsMC40LDExLjQtNC4yLDExLjQtNC4yYy0xLjEtNy01LjEtMTAuNC01LjktMTFsMCwwYzAsMCwwLDAtMC4xLTAuMWwtMC4xLTAuMWwwLDBsLTAuMS0wLjFjMC0wLjQsMC4xLTAuOCwwLjEtMS4zDQoJYzAuMS0wLjgsMC4xLTEuNSwwLjEtMi4zdi0wLjZ2LTAuM3YtMC4xYzAtMC4yLDAtMC4xLDAtMC4ydi0wLjV2LTAuNmMwLTAuMiwwLTAuNCwwLTAuNnMwLTAuNC0wLjEtMC42bC0wLjEtMC42bC0wLjEtMC42DQoJYy0wLjEtMC44LTAuMy0xLjUtMC40LTIuM2MtMC43LTMtMS45LTUuOS0zLjQtOC40Yy0xLjYtMi42LTMuNS00LjgtNS43LTYuOGMtMi4yLTEuOS00LjYtMy41LTcuMi00LjZjLTIuNi0xLjItNS4yLTEuOS03LjktMi4yDQoJYy0xLjMtMC4yLTIuNy0wLjItNC0wLjJoLTAuNWgtMC4xaC0wLjJoLTAuMmgtMC41Yy0wLjIsMC0wLjQsMC0wLjUsMGMtMC43LDAuMS0xLjQsMC4yLTIsMC4zYy0yLjcsMC41LTUuMiwxLjUtNy40LDIuOA0KCWMtMi4yLDEuMy00LjEsMy01LjcsNC45cy0yLjgsMy45LTMuNiw2LjFjLTAuOCwyLjEtMS4zLDQuNC0xLjQsNi41YzAsMC41LDAsMS4xLDAsMS42YzAsMC4xLDAsMC4zLDAsMC40djAuNGMwLDAuMywwLDAuNSwwLjEsMC44DQoJYzAuMSwxLjEsMC4zLDIuMSwwLjYsMy4xYzAuNiwyLDEuNSwzLjgsMi43LDUuNHMyLjUsMi44LDQsMy44czMsMS43LDQuNiwyLjJjMS42LDAuNSwzLjEsMC43LDQuNSwwLjZjMC4yLDAsMC40LDAsMC41LDANCgljMC4xLDAsMC4yLDAsMC4zLDBzMC4yLDAsMC4zLDBjMC4yLDAsMC4zLDAsMC41LDBoMC4xaDAuMWMwLjEsMCwwLjIsMCwwLjMsMGMwLjIsMCwwLjQtMC4xLDAuNS0wLjFjMC4yLDAsMC4zLTAuMSwwLjUtMC4xDQoJYzAuMy0wLjEsMC43LTAuMiwxLTAuM2MwLjYtMC4yLDEuMi0wLjUsMS44LTAuN2MwLjYtMC4zLDEuMS0wLjYsMS41LTAuOWMwLjEtMC4xLDAuMy0wLjIsMC40LTAuM2MwLjUtMC40LDAuNi0xLjEsMC4yLTEuNg0KCWMtMC40LTAuNC0xLTAuNS0xLjUtMC4zQzg4LDc0LDg3LjksNzQsODcuNyw3NC4xYy0wLjQsMC4yLTAuOSwwLjQtMS4zLDAuNWMtMC41LDAuMS0xLDAuMy0xLjUsMC40Yy0wLjMsMC0wLjUsMC4xLTAuOCwwLjENCgljLTAuMSwwLTAuMywwLTAuNCwwYy0wLjEsMC0wLjMsMC0wLjQsMHMtMC4zLDAtMC40LDBjLTAuMiwwLTAuMywwLTAuNSwwYzAsMC0wLjEsMCwwLDBoLTAuMWgtMC4xYy0wLjEsMC0wLjEsMC0wLjIsMA0KCXMtMC4zLDAtMC40LTAuMWMtMS4xLTAuMi0yLjMtMC41LTMuNC0xYy0xLjEtMC41LTIuMi0xLjItMy4xLTIuMWMtMS0wLjktMS44LTEuOS0yLjUtMy4xYy0wLjctMS4yLTEuMS0yLjUtMS4zLTMuOA0KCWMtMC4xLTAuNy0wLjItMS40LTAuMS0yLjFjMC0wLjIsMC0wLjQsMC0wLjZjMCwwLjEsMCwwLDAsMHYtMC4xdi0wLjFjMC0wLjEsMC0wLjIsMC0wLjNjMC0wLjQsMC4xLTAuNywwLjItMS4xYzAuNS0zLDItNS45LDQuMy04LjENCgljMC42LTAuNiwxLjItMS4xLDEuOS0xLjVjMC43LTAuNSwxLjQtMC45LDIuMS0xLjJjMC43LTAuMywxLjUtMC42LDIuMy0wLjhzMS42LTAuNCwyLjQtMC40YzAuNCwwLDAuOC0wLjEsMS4yLTAuMQ0KCWMwLjEsMCwwLjIsMCwwLjMsMGgwLjNoMC4yYzAuMSwwLDAsMCwwLDBoMC4xaDAuM2MwLjksMC4xLDEuOCwwLjIsMi42LDAuNGMxLjcsMC40LDMuNCwxLDUsMS45YzMuMiwxLjgsNS45LDQuNSw3LjUsNy44DQoJYzAuOCwxLjYsMS40LDMuNCwxLjcsNS4zYzAuMSwwLjUsMC4xLDAuOSwwLjIsMS40djAuM1Y2NmMwLDAuMSwwLDAuMiwwLDAuM2MwLDAuMSwwLDAuMiwwLDAuM3YwLjN2MC4zYzAsMC4yLDAsMC42LDAsMC44DQoJYzAsMC41LTAuMSwxLTAuMSwxLjVjLTAuMSwwLjUtMC4xLDEtMC4yLDEuNXMtMC4yLDEtMC4zLDEuNWMtMC4yLDEtMC42LDEuOS0wLjksMi45Yy0wLjcsMS45LTEuNywzLjctMi45LDUuMw0KCWMtMi40LDMuMy01LjcsNi05LjQsNy43Yy0xLjksMC44LTMuOCwxLjUtNS44LDEuOGMtMSwwLjItMiwwLjMtMywwLjNIODFoLTAuMmgtMC4zSDgwaC0wLjNjMC4xLDAsMCwwLDAsMGgtMC4xDQoJYy0wLjUsMC0xLjEsMC0xLjYtMC4xYy0yLjItMC4yLTQuMy0wLjYtNi40LTEuMmMtMi4xLTAuNi00LjEtMS40LTYtMi40Yy0zLjgtMi03LjItNC45LTkuOS04LjJjLTEuMy0xLjctMi41LTMuNS0zLjUtNS40DQoJcy0xLjctMy45LTIuMy01LjljLTAuNi0yLTAuOS00LjEtMS02LjJ2LTAuNHYtMC4xdi0wLjF2LTAuMlY2MHYtMC4xdi0wLjF2LTAuMnYtMC41VjU5bDAsMHYtMC4yYzAtMC4zLDAtMC41LDAtMC44DQoJYzAtMSwwLjEtMi4xLDAuMy0zLjJjMC4xLTEuMSwwLjMtMi4xLDAuNS0zLjJjMC4yLTEuMSwwLjUtMi4xLDAuOC0zLjJjMC42LTIuMSwxLjMtNC4xLDIuMi02YzEuOC0zLjgsNC4xLTcuMiw2LjgtOS45DQoJYzAuNy0wLjcsMS40LTEuMywyLjItMS45YzAuMy0wLjMsMS0wLjksMS44LTEuNGMwLjgtMC41LDEuNi0xLDIuNS0xLjRjMC40LTAuMiwwLjgtMC40LDEuMy0wLjZjMC4yLTAuMSwwLjQtMC4yLDAuNy0wLjMNCgljMC4yLTAuMSwwLjQtMC4yLDAuNy0wLjNjMC45LTAuNCwxLjgtMC43LDIuNy0xYzAuMi0wLjEsMC41LTAuMSwwLjctMC4yYzAuMi0wLjEsMC41LTAuMSwwLjctMC4yYzAuNS0wLjEsMC45LTAuMiwxLjQtMC40DQoJYzAuMi0wLjEsMC41LTAuMSwwLjctMC4yYzAuMiwwLDAuNS0wLjEsMC43LTAuMWMwLjIsMCwwLjUtMC4xLDAuNy0wLjFsMC40LTAuMWwwLjQtMC4xYzAuMiwwLDAuNS0wLjEsMC43LTAuMQ0KCWMwLjMsMCwwLjUtMC4xLDAuOC0wLjFjMC4yLDAsMC42LTAuMSwwLjgtMC4xYzAuMiwwLDAuMywwLDAuNS0wLjFoMC4zaDAuMmgwLjJjMC4zLDAsMC41LDAsMC44LTAuMWgwLjRjMCwwLDAuMSwwLDAsMGgwLjFoMC4yDQoJYzAuMiwwLDAuNSwwLDAuNywwYzAuOSwwLDEuOCwwLDIuNywwYzEuOCwwLjEsMy42LDAuMyw1LjMsMC42YzMuNCwwLjYsNi43LDEuNyw5LjYsMy4yYzIuOSwxLjQsNS42LDMuMiw3LjgsNS4xDQoJYzAuMSwwLjEsMC4zLDAuMiwwLjQsMC40YzAuMSwwLjEsMC4zLDAuMiwwLjQsMC40YzAuMywwLjIsMC41LDAuNSwwLjgsMC43YzAuMywwLjIsMC41LDAuNSwwLjgsMC43YzAuMiwwLjMsMC41LDAuNSwwLjcsMC44DQoJYzEsMSwxLjksMi4xLDIuNywzLjFjMS42LDIuMSwyLjksNC4yLDMuOSw2LjJjMC4xLDAuMSwwLjEsMC4yLDAuMiwwLjRjMC4xLDAuMSwwLjEsMC4yLDAuMiwwLjRzMC4yLDAuNSwwLjQsMC43DQoJYzAuMSwwLjIsMC4yLDAuNSwwLjMsMC43YzAuMSwwLjIsMC4yLDAuNSwwLjMsMC43YzAuNCwwLjksMC43LDEuOCwxLDIuN2MwLjUsMS40LDAuOCwyLjYsMS4xLDMuNmMwLjEsMC40LDAuNSwwLjcsMC45LDAuNw0KCWMwLjUsMCwwLjgtMC40LDAuOC0wLjlDMTIzLDUyLjcsMTIzLDUxLjQsMTIyLjksNDkuOXoiLz4NCjwvc3ZnPg0K;" vertex="1" parent="1">
          <mxGeometry x="690" y="792.5" width="107.8" height="110" as="geometry" />
        </mxCell>
        <mxCell id="BBem6FU7VksnU7Hk0lwj-12" value="" style="shape=image;aspect=fixed;image=data:image/svg+xml,PHN2ZyB4bWxucz0iaHR0cDovL3d3dy53My5vcmcvMjAwMC9zdmciIHdpZHRoPSIxMjAiIGhlaWdodD0iNjAiIHZpZXdCb3g9Ii00LjY0OSAtMC42NjcgMTIwIDYwIiBvdmVyZmxvdz0idmlzaWJsZSI+PHBhdGggZD0iTTU1LjM1IDQuNjAyYy05LjIzIDAtMTYuNzEzIDcuNDgyLTE2LjcxMyAxNi43MTNTNDYuMTIgMzguMDI4IDU1LjM1IDM4LjAyOHMxNi43MTMtNy40ODMgMTYuNzEzLTE2LjcxM1M2NC41OCA0LjYwMiA1NS4zNSA0LjYwMnptMCAzMS4yOGMtMi42MjYgMC00Ljc1NS0xLjc1NC00Ljc1NS0zLjkxOGg5LjUxYzAgMi4xNjMtMi4xMyAzLjkxOC00Ljc1NSAzLjkxOHptNy44NTQtNS4yMTVoLTE1Ljcxdi0yLjg1aDE1Ljd2Mi44NXptLS4wNTYtNC4zMTVINDcuNTRsLS4xNTUtLjE4Yy0xLjYwOC0xLjk1My0xLjk4Ny0yLjk3Mi0yLjM1NC00LjAxLS4wMDYtLjAzNCAxLjk1LjQgMy4zMzcuNzEyYTQyLjE5IDQyLjE5IDAgMCAwIDEuNzU3LjM1NWMtMS4wMDItMS4xNzQtMS41OTctMi42NjctMS41OTctNC4xOTMgMC0zLjM1IDIuNTctNi4yNzggMS42NDItOC42NDQuOTAyLjA3MyAxLjg2NyAxLjkwNCAxLjkzMiA0Ljc2Ny45Ni0xLjMyNSAxLjM2LTMuNzQ2IDEuMzYtNS4yMyAwLTEuNTM3IDEuMDEzLTMuMzIyIDIuMDI1LTMuMzgzLS45MDMgMS40ODguMjM0IDIuNzY0IDEuMjQ0IDUuOTI4LjM4IDEuMTkuMzMgMy4xOS42MjMgNC40NTcuMDk3LTIuNjM1LjU1LTYuNDggMi4yMjItNy44MDYtLjczNyAxLjY3LjExIDMuNzYzLjY4OCA0Ljc2OC45MzQgMS42MjIgMS41IDIuODUgMS41IDUuMTc2IDAgMS41Ni0uNTc1IDMuMDI2LTEuNTQ2IDQuMTczIDEuMTA0LS4yMDcgMS44NjYtLjM5NCAxLjg2Ni0uMzk0bDMuNTg0LS43YzAgMC0uNTIgMi4xNC0yLjUyMiA0LjIwNHoiIGZpbGw9IiNkYTRlMzEiLz48cGF0aCBkPSJNOS42NDMgNDEuNTI0Yy43NzgtLjEzIDEuNzk3LS4yNCAzLjA5My0uMjQgMS41OTMgMCAyLjc2LjM3IDMuNSAxLjAzNy42NjcuNTkzIDEuMDkzIDEuNSAxLjA5MyAyLjYxMiAwIDEuMTMtLjMzMyAyLjAyLS45NjMgMi42NjctLjg3LjkwOC0yLjI0IDEuMzctMy44MTYgMS4zNy0uNDgyIDAtLjkyNi0uMDItMS4yOTctLjF2NWgtMS42em0xLjYgNi4wMmMuMzUyLjA5My43OTcuMTMgMS4zMzQuMTMgMS45NDUgMCAzLjEzLS45NjMgMy4xMy0yLjY1IDAtMS42NjctMS4xODUtMi40NjMtMi45NDUtMi40NjMtLjcwNCAwLTEuMjQuMDU2LTEuNTIuMTN6bTcuODkzLjE0OGwtLjA3NC0yLjc5N2gxLjQyNmwuMDc0IDEuNzc4aC4wNTZjLjQwOC0xLjIwNCAxLjQwOC0xLjk2NCAyLjUtMS45NjQuMTY3IDAgLjI5Ni4wMi40NDUuMDM3djEuNTM3Yy0uMTY3LS4wMzctLjMzMy0uMDM3LS41NTYtLjAzNy0xLjE0OCAwLTEuOTYzLjg1Mi0yLjE4NiAyLjA3NWE0Ljg4IDQuODggMCAwIDAtLjA1Ni43NnY0Ljc4aC0xLjYzdi02LjE2OHptMTMuOTk0IDEuNmMwIDMuMzE2LTIuMzE1IDQuNzYtNC40NjQgNC43Ni0yLjQwOCAwLTQuMjk3LTEuNzc4LTQuMjk3LTQuNjEyIDAtMi45ODIgMS45ODItNC43NDIgNC40NDYtNC43NDIgMi41NzUgMCA0LjMxNiAxLjg3IDQuMzE2IDQuNTk0em0tNy4wOTQuMDkzYzAgMS45NjQgMS4xIDMuNDQ1IDIuNzA0IDMuNDQ1IDEuNTU2IDAgMi43MjMtMS40NjMgMi43MjMtMy40ODIgMC0xLjUyLS43Ni0zLjQyNy0yLjY4Ni0zLjQyNy0xLjkwOCAwLTIuNzQgMS43NzgtMi43NCAzLjQ2NHptOS4xNTItMi4wNzZsLS4wNzQtMi40MjZoMS40MjZsLjA3NCAxLjQ2M2guMDU2Yy41LS44NTIgMS4zMzQtMS42NSAyLjgzNC0xLjY1IDEuMjA0IDAgMi4xMy43NCAyLjUyIDEuNzk3aC4wMzdhMy41NCAzLjU0IDAgMCAxIDEuMDE5LTEuMTY3Yy41MzctLjQwNyAxLjEtLjYzIDEuOTYzLS42MyAxLjIwNCAwIDIuOTY0Ljc3OCAyLjk2NCAzLjl2NS4yNmgtMS41OTNWNDguOGMwLTEuNzQtLjY1LTIuNzYtMS45NDUtMi43Ni0uOTQ1IDAtMS42NS42ODUtMS45NDUgMS40NjNhMi43OSAyLjc5IDAgMCAwLS4xMy44MTV2NS41MzhINDAuOHYtNS4zN2MwLTEuNDI2LS42My0yLjQ0NS0xLjg3LTIuNDQ1LTEgMC0xLjc2LjgxNS0yLjAyIDEuNjMtLjA5My4yMjItLjEzLjUyLS4xMy43OTd2NS40aC0xLjU5M3YtNi41NHptMTYuMzU3IDIuMzU1Yy4wMzcgMi4yMDQgMS40MjYgMy4xMTIgMy4wNzUgMy4xMTIgMS4xNjcgMCAxLjktLjIwNCAyLjQ4Mi0uNDYzbC4yOTYgMS4xNjdjLS41NzQuMjYtMS41NzQuNTc0LTMgLjU3NC0yLjc2IDAtNC40MDgtMS44MzQtNC40MDgtNC41MzhzMS41OTMtNC44MTYgNC4yMDUtNC44MTZjMi45NDUgMCAzLjcwNSAyLjU1NiAzLjcwNSA0LjIwNWE0LjA3IDQuMDcgMCAwIDEtLjA1Ni43NnptNC43OC0xLjE2N2MuMDItMS4wMi0uNDI2LTIuNjMtMi4yNi0yLjYzLTEuNjY3IDAtMi4zNyAxLjUtMi41IDIuNjN6bTUuNTU1LTUuNzZ2Mi4xNWgyLjMzNHYxLjI0SDYxLjg4djQuODM1YzAgMS4xLjMxNSAxLjc0IDEuMjIzIDEuNzQuNDQ1IDAgLjcwNC0uMDM3Ljk0NS0uMWwuMDc0IDEuMjRjLS4zMTUuMS0uODE1LjIyMi0xLjQ0NS4yMjItLjc2IDAtMS4zNy0uMjYtMS43Ni0uNjg1LS40NDUtLjUtLjYzLTEuMjk3LS42My0yLjM1M3YtNC45SDU4Ljl2LTEuMjRoMS40VjQzLjIzem00LjE3LTIuMDQ3aDEuNjN2NS42MTNoLjAzN2EzLjA3IDMuMDcgMCAwIDEgMS4xNjctMS4xNjcgMy4zNCAzLjM0IDAgMCAxIDEuNjY3LS40NDVjMS4yMDQgMCAzLjEzLjc0IDMuMTMgMy44MTZ2NS4zMzRoLTEuNjNWNDguN2MwLTEuNDQ1LS41MzctMi42NS0yLjA3NS0yLjY1LTEuMDU2IDAtMS44Ny43NC0yLjE4NiAxLjYtLjA5Mi4yNC0uMS40ODItLjEuNzc4djUuNGgtMS42M1Y0MC43em0xMS4xODggOC45NjRjLjAzNyAyLjIwNCAxLjQyNiAzLjExMiAzLjA3NSAzLjExMiAxLjE2NyAwIDEuOS0uMjA0IDIuNDgyLS40NjNsLjI5NiAxLjE2N2MtLjU3NC4yNi0xLjU3NC41NzQtMyAuNTc0LTIuNzYgMC00LjQtMS44MzQtNC40LTQuNTM4czEuNTkzLTQuODE2IDQuMjA1LTQuODE2YzIuOTQ1IDAgMy43MDUgMi41NTYgMy43MDUgNC4yMDVhMy45NiAzLjk2IDAgMCAxLS4wNTYuNzZ6bTQuNzgtMS4xNjdjLjAyLTEuMDItLjQyNi0yLjYzLTIuMjYtMi42My0xLjY2NyAwLTIuMzcgMS41LTIuNSAyLjYzem0xMS4wOTQgMi45MWwuMDc0IDIuNDY0SDkxLjc0bC0uMDkzLTEuNDYzSDkxLjZjLS40MDguNzIyLTEuMzcgMS42NjctMi45NjQgMS42NjctMS40MDggMC0zLjA5My0uNzk3LTMuMDkzLTMuOTI3di01LjI0MmgxLjYzdjQuOTQ1YzAgMS43MDQuNTM3IDIuODcgMiAyLjg3IDEuMDkzIDAgMS44NTItLjc2IDIuMTUtMS41YTIuMjQgMi4yNCAwIDAgMCAuMTQ4LS44MzR2LTUuNDgzaDEuNjN6bTIuNDgzLjgxNGMuNS4yOTYgMS4zNTIuNjMgMi4xNjcuNjMgMS4xNjcgMCAxLjcyMi0uNTc0IDEuNzIyLTEuMzM0IDAtLjc3OC0uNDYzLTEuMTg1LTEuNjUtMS42My0xLjYzLS41OTMtMi40LTEuNDYzLTIuNC0yLjUzOCAwLTEuNDQ1IDEuMTg1LTIuNjMgMy4wOTMtMi42My45MDggMCAxLjcwNC4yNCAyLjE4Ni41NTZsLS40IDEuMTg1Yy0uMzUyLS4yMjItMS0uNTM3LTEuODM0LS41MzctLjk2MyAwLTEuNDgyLjU1Ni0xLjQ4MiAxLjIyMyAwIC43NC41MTggMS4wNzQgMS42ODUgMS41MzcgMS41MzcuNTc0IDIuMzUyIDEuMzUyIDIuMzUyIDIuNjg2IDAgMS41OTMtMS4yNCAyLjcwNC0zLjMzNCAyLjcwNC0uOTgyIDAtMS45LS4yNi0yLjUyLS42M3oiIGZpbGw9IiNlNjUyMmMiLz48L3N2Zz4=;" vertex="1" parent="1">
          <mxGeometry x="1.5" y="792.5" width="240" height="120" as="geometry" />
        </mxCell>
        <mxCell id="BBem6FU7VksnU7Hk0lwj-13" value="ECR" style="text;html=1;strokeColor=none;fillColor=none;align=center;verticalAlign=middle;whiteSpace=wrap;rounded=0;" vertex="1" parent="1">
          <mxGeometry x="730" y="505" width="83.37" height="30" as="geometry" />
        </mxCell>
      </root>
    </mxGraphModel>
  </diagram>
</mxfile>
